<?xml version="1.0" encoding="UTF-8"?>
<svg width="101px" height="97px" viewBox="0 0 101 97" version="1.1" xmlns="http://www.w3.org/2000/svg" xmlns:xlink="http://www.w3.org/1999/xlink">
    <!-- Generator: Sketch 55.2 (78181) - https://sketchapp.com -->
    <title>ic-search</title>
    <desc>Created with Sketch.</desc>
    <g id="index" stroke="none" stroke-width="1" fill="none" fill-rule="evenodd">
        <g id="Index-Marquee-popup-No-found-4" transform="translate(-679.000000, -392.000000)">
            <g id="search" transform="translate(623.000000, 392.000000)">
                <g id="ic-search" transform="translate(56.000000, 0.000000)">
                    <path d="M58.0773337,0.000406319086 C58.0902846,0.000150291743 58.1032652,1.48765236e-05 58.1162745,1.15539258e-06 C58.1346506,-1.81881942e-05 58.1529699,0.000205396391 58.1712295,0.000668866264 C59.5389314,0.0142705338 60.8483532,0.555880809 61.8226008,1.51283745 L75.4261924,14.8722189 C75.806561,15.2459317 75.9176227,15.3594405 76.0997428,15.5784557 C76.7037628,16.3048423 76.9995933,17.1050283 76.9995933,18.1145759 L76.9995933,33.924315 C76.9995933,35.0430754 76.0892762,35.9500099 74.9663431,35.9500099 C73.84341,35.9500099 72.9330929,35.0430754 72.9330929,33.924315 L72.9330929,20.1402709 L58.1355042,20.1402709 C57.0134108,20.1402709 56.1034419,19.2346416 56.1022551,18.1167183 L56.0873234,4.05179627 L35.1006092,4.05179627 L5.27791098,4.05179627 C4.60828374,4.05179627 4.06650049,4.59165981 4.06650049,5.25870534 L4.06650049,91.7404856 C4.06650049,92.4086764 4.60821343,92.94861 5.27791098,92.94861 L71.7180225,92.94861 C72.3915519,92.94861 72.9334995,92.4089098 72.9334995,91.7404856 L72.9334995,87.244253 C72.9334995,86.1254925 73.8438167,85.218558 74.9667498,85.218558 C76.0896829,85.218558 77,86.1254925 77,87.244253 L77,91.7404856 C77,94.6468232 74.6370244,97 71.7180225,97 L5.27791098,97 C2.36195311,97 0,94.6458048 0,91.7404856 L0,5.25870534 C0,2.35429596 2.36225989,0.000406319086 5.27791098,0.000406319086 L35.1006092,0.000406319086 L58.0773337,0.000406319086 Z M70.8723617,16.088881 L60.1554328,5.56434115 L60.1666052,16.088881 L70.8723617,16.088881 Z" id="Combined-Shape" fill="#B4B4B4" fill-rule="nonzero"></path>
                    <path d="M67.1815727,74.8777241 C58.6211591,74.8777241 51.6815727,67.9381377 51.6815727,59.3777241 C51.6815727,50.8173105 58.6211591,43.8777241 67.1815727,43.8777241 C75.7419864,43.8777241 82.6815727,50.8173105 82.6815727,59.3777241 C82.6815727,67.9381377 75.7419864,74.8777241 67.1815727,74.8777241 Z M67.1815727,78.8777241 C77.9511254,78.8777241 86.6815727,70.1472767 86.6815727,59.3777241 C86.6815727,48.6081715 77.9511254,39.8777241 67.1815727,39.8777241 C56.4120201,39.8777241 47.6815727,48.6081715 47.6815727,59.3777241 C47.6815727,70.1472767 56.4120201,78.8777241 67.1815727,78.8777241 Z M83.3183151,79.8223124 L96.7818612,93.1824041 C98.91407,95.2982289 102.017855,92.0278328 99.8856459,89.9120079 L86.4220999,76.5519162 C84.2898911,74.4360913 81.1861063,77.7064875 83.3183151,79.8223124 Z" id="Combined-Shape" fill="#B4B4B4" fill-rule="nonzero"></path>
                    <path d="M67.3591954,56.6925287 L74.0517241,50 L77,52.9482759 L70.3074713,59.6408046 L77,66.3333333 L74.3333333,69 L67.6408046,62.3074713 L60.9482759,69 L58,66.0517241 L64.6925287,59.3591954 L58,52.6666667 L60.6666667,50 L67.3591954,56.6925287 Z" id="Combined-Shape" fill="#9F3535"></path>
                </g>
            </g>
        </g>
    </g>
</svg>